# xmcd CD database file
# Copyright (C) 1993-1998 Ti Kan
#
# Track frame offsets:
# 150
# 17137
# 31260
# 45825
# 62345
# 77075
# 91570
# 108135
# 120527
# 136712
#
# Disc length: 2004 seconds
# Revision: 0
# Processed by: cddbd v1.4b41PL1 Copyright (c) Steve Scherf et al.
# Submitted via: CDSpectrumPro v3.2.328
#
DISCID=6107d20a
DTITLE=Zaca Creek - Zaca Creek
DYEAR=1900
DGENRE=
TTITLE0=Ghost Town
TTITLE1=Sometimes Love's Not A Pretty Thing
TTITLE2=Here Comes the Rain
TTITLE3=On Eagle's Wings We'll Fly
TTITLE4=Rock Me Back
TTITLE5=Warpaint
TTITLE6=An Old Memory Like Me
TTITLE7=Mean Old Moon
TTITLE8=Baby Sarah
TTITLE9=Time's Up
EXTD=
EXTT0=
EXTT1=
EXTT2=
EXTT3=
EXTT4=
EXTT5=
EXTT6=
EXTT7=
EXTT8=
EXTT9=
PLAYORDER=
